<svg width="28" height="28" viewBox="0 0 28 28" fill="none" xmlns="http://www.w3.org/2000/svg">
<path d="M5.6656 13.3328C5.53633 13.1088 5.36419 12.9123 5.15901 12.7548C4.95383 12.5973 4.71964 12.4817 4.46979 12.4146C4.21994 12.3476 3.95934 12.3304 3.70286 12.3641C3.44637 12.3978 3.19904 12.4817 2.97497 12.6109C2.7509 12.7402 2.55449 12.9124 2.39695 13.1175C2.23941 13.3227 2.12382 13.5569 2.05679 13.8068C1.98975 14.0566 1.97259 14.3172 2.00627 14.5737C2.03995 14.8302 2.12383 15.0775 2.2531 15.3016L6.29997 22.3125C7.35496 24.0999 9.0729 25.3985 11.0802 25.926C13.0876 26.4535 15.222 26.1672 17.0194 25.1294C18.8168 24.0916 20.1318 22.3862 20.6786 20.384C21.2253 18.3819 20.9595 16.2448 19.939 14.4375L18.0797 11.2109C17.8026 10.793 17.3764 10.4966 16.8883 10.3821C16.4001 10.2677 15.8866 10.3438 15.4526 10.595C15.0187 10.8462 14.6969 11.2535 14.5529 11.7338C14.409 12.2141 14.4538 12.7312 14.6781 13.1797" stroke="#323232" stroke-width="0.5" stroke-linecap="round" stroke-linejoin="round"/>
<path d="M11.7032 15.9141L7.54694 8.71719C7.41767 8.49312 7.24554 8.29671 7.04036 8.13917C6.83518 7.98162 6.60098 7.86604 6.35114 7.799C6.10129 7.73197 5.84068 7.71481 5.5842 7.74849C5.32772 7.78217 5.08039 7.86604 4.85632 7.99531C4.63225 8.12458 4.43584 8.29672 4.2783 8.5019C4.12075 8.70707 4.00517 8.94127 3.93813 9.19112C3.8711 9.44097 3.85394 9.70157 3.88762 9.95805C3.9213 10.2145 4.00517 10.4619 4.13444 10.6859L8.29069 17.8828" stroke="#323232" stroke-width="0.5" stroke-linecap="round" stroke-linejoin="round"/>
<path d="M16.4281 16.2203L11.8343 8.25781C11.5732 7.80529 11.1431 7.47501 10.6385 7.33963C10.1339 7.20425 9.5962 7.27487 9.14368 7.53594C8.69115 7.79701 8.36087 8.22715 8.22549 8.73174C8.09011 9.23633 8.16073 9.77404 8.4218 10.2266" stroke="#323232" stroke-width="0.5" stroke-linecap="round" stroke-linejoin="round"/>
<path d="M10.8281 7.40468L9.70149 5.44687C9.44042 4.99434 9.01027 4.66406 8.50568 4.52868C8.00109 4.39331 7.46339 4.46392 7.01086 4.72499C6.55834 4.98607 6.22806 5.41621 6.09268 5.9208C5.9573 6.42539 6.02792 6.96309 6.28899 7.41562L6.55149 7.86406" stroke="#323232" stroke-width="0.5" stroke-linecap="round" stroke-linejoin="round"/>
<path d="M20.5625 20.9453C21.8974 19.7365 22.7784 18.1073 23.0589 16.3284C23.3395 14.5495 23.0028 12.7282 22.1047 11.1672L20.2453 7.95156C20.116 7.7275 19.9439 7.53108 19.7387 7.37354C19.5335 7.216 19.2993 7.10041 19.0495 7.03338C18.7997 6.96635 18.539 6.94918 18.2826 6.98286C18.0261 7.01655 17.7788 7.10042 17.5547 7.22969C17.3306 7.35896 17.1342 7.5311 16.9767 7.73627C16.8191 7.94145 16.7035 8.17565 16.6365 8.4255C16.5695 8.67534 16.5523 8.93595 16.586 9.19243C16.6197 9.44891 16.7035 9.69625 16.8328 9.92031" stroke="#323232" stroke-width="0.5" stroke-linecap="round" stroke-linejoin="round"/>
<path d="M17.0844 10.3578L13.9891 4.99844C13.728 4.54592 13.2979 4.21564 12.7933 4.08026C12.2887 3.94488 11.751 4.0155 11.2985 4.27657C10.8459 4.53764 10.5157 4.96779 10.3803 5.47238C10.2449 5.97697 10.3155 6.51467 10.5766 6.96719" stroke="#323232" stroke-width="0.5" stroke-linecap="round" stroke-linejoin="round"/>
<path d="M19.3375 1.23593L18.889 2.92031" stroke="#323232" stroke-width="0.5" stroke-linecap="round" stroke-linejoin="round"/>
<path d="M22.6515 2.77812L21.6453 4.21093" stroke="#323232" stroke-width="0.5" stroke-linecap="round" stroke-linejoin="round"/>
<path d="M25.2219 5.34843L23.7891 6.35468" stroke="#323232" stroke-width="0.5" stroke-linecap="round" stroke-linejoin="round"/>
</svg>
