<svg width="19" height="17" viewBox="0 0 19 17" fill="none" xmlns="http://www.w3.org/2000/svg">
<path d="M10.4444 12.6532H11.3889C11.8064 12.6532 12.2067 12.4769 12.5019 12.1631C12.7971 11.8492 12.963 11.4236 12.963 10.9798C12.963 10.536 12.7971 10.1103 12.5019 9.79652C12.2067 9.4827 11.8064 9.30639 11.3889 9.30639H16.4259C16.8434 9.30639 17.2438 9.13009 17.539 8.81627C17.8342 8.50244 18 8.07681 18 7.63299C18 7.18918 17.8342 6.76354 17.539 6.44972C17.2438 6.1359 16.8434 5.95959 16.4259 5.95959H6.87917L9.86991 4.12722C10.2321 3.90531 10.4965 3.53955 10.605 3.1104C10.7134 2.68124 10.6571 2.22385 10.4484 1.83884C10.2396 1.45383 9.89559 1.17275 9.49191 1.05742C9.08823 0.942086 8.65799 1.00196 8.29583 1.22387C2.88889 3.95151 1 5.60818 1 9.30639C1 10.1854 1.16286 11.0558 1.47928 11.8679C1.7957 12.68 2.25948 13.4179 2.84414 14.0395C3.42881 14.661 4.12291 15.1541 4.88681 15.4905C5.65071 15.8269 6.46945 16 7.2963 16H10.4444C10.8619 16 11.2623 15.8237 11.5575 15.5099C11.8527 15.196 12.0185 14.7704 12.0185 14.3266C12.0185 13.8828 11.8527 13.4571 11.5575 13.1433C11.2623 12.8295 10.8619 12.6532 10.4444 12.6532Z" fill="#9DC10F" stroke="#323232" stroke-width="0.5" stroke-linecap="round" stroke-linejoin="round"/>
</svg>
